<svg xmlns="http://www.w3.org/2000/svg">
  <path stroke="null" id="svg_1" fill="#000000" d="m86.1236,106.09933c-14.69095,-1.2679 -27.62576,-8.61457 -35.69886,-20.27612c-7.42412,-10.72409 -9.79755,-23.83713 -6.59201,-36.42029c4.0268,-15.80696 16.60736,-28.41934 32.90403,-32.98728c1.64695,-0.46164 4.93905,-1.15435 6.45684,-1.35864c0.55312,-0.07445 0.55593,-0.07311 0.64058,0.30411c0.26399,1.17641 1.49271,2.56669 2.79765,3.1655c2.03939,0.93583 4.84281,0.92454 6.86232,-0.02766c1.27325,-0.60033 2.39618,-1.91889 2.6187,-3.07491c0.04561,-0.23696 0.1172,-0.43063 0.15908,-0.43038c0.26494,0.00161 2.56945,0.39584 3.7719,0.64527c4.45067,0.9232 9.26458,2.68408 13.31095,4.86903c1.78568,0.96423 4.68147,2.86263 6.40646,4.19991c14.58827,11.3094 20.92836,29.7507 16.23201,47.21376c-3.46528,12.88546 -12.58671,23.6836 -24.98138,29.57348c-4.8541,2.30664 -9.51343,3.65692 -15.1385,4.38716c-2.03702,0.26443 -7.73172,0.39121 -9.74977,0.21704zm7.78052,-9.35871c11.45587,-1.18915 21.46651,-7.07403 27.80516,-16.34562c3.44434,-5.03806 5.49762,-10.82848 6.06023,-17.09033c0.17399,-1.93658 0.08073,-5.73614 -0.1872,-7.62633c-0.95797,-6.7585 -3.69794,-12.90592 -8.14628,-18.27705c-1.23088,-1.48621 -4.08309,-4.2226 -5.68216,-5.45142c-10.31921,-7.92988 -23.69354,-10.16375 -36.21039,-6.04811c-5.34752,1.75831 -10.22438,4.70891 -14.34138,8.67683c-5.32309,5.13034 -8.88872,11.4919 -10.35673,18.47775c-1.99816,9.50875 -0.0258,19.41778 5.45508,27.40601c1.43456,2.09083 2.71205,3.60402 4.65774,5.51711c6.20639,6.10238 14.11266,9.80694 22.95832,10.75736c1.90669,0.20486 6.03171,0.20682 7.98759,0.00379l0,0zm-4.88793,-31.18331c-1.37507,-0.43934 -2.43058,-1.31775 -3.01392,-2.50824c-0.47173,-0.9627 -0.58195,-2.27087 -0.27663,-3.28303c0.39531,-1.31047 1.63346,-2.5876 2.94322,-3.0359l0.58576,-0.20049l0,-12.66843l0,-12.66843l1.07296,0l1.07296,0l0,12.6954c0,10.5358 0.02718,12.6954 0.15979,12.6954c0.08788,0 0.48299,0.15565 0.87803,0.34588c0.88882,0.42803 1.84588,1.38115 2.27693,2.26757c0.2851,0.58628 0.3214,0.79716 0.3214,1.86727c0,1.11684 -0.02808,1.26347 -0.37844,1.9762c-0.46617,0.94831 -1.21302,1.68527 -2.20474,2.17556c-0.68148,0.33691 -0.87088,0.37629 -1.94709,0.40484c-0.6557,0.0174 -1.3263,-0.01122 -1.49022,-0.0636zm8.31566,-9.07798c-0.47513,-0.96751 -1.13822,-1.63282 -2.12585,-2.13297l-0.85471,-0.43284l4.09699,-3.94953l4.09699,-3.94953l1.70037,1.63573l1.70037,1.63573l-4.08301,3.93605c-2.24566,2.16483 -4.11013,3.93346 -4.14327,3.93028c-0.03314,-0.00317 -0.20769,-0.30599 -0.38789,-0.67293zm-74.60073,38.69865c-1.17504,-0.51153 -1.90756,-1.52319 -1.99983,-2.76192c-0.08114,-1.08931 0.19912,-1.82788 0.97871,-2.57918c1.08052,-1.0413 0.19063,-0.97799 13.24896,-0.94261l11.43689,0.03098l0.61036,0.3103c1.49105,0.75803 2.19391,2.47853 1.64582,4.0287c-0.25354,0.71709 -1.04062,1.55107 -1.77477,1.88053l-0.60063,0.26954l-11.50451,-0.0014c-11.30927,-0.00138 -11.51362,-0.00537 -12.04099,-0.23495l0,0zm-12.72986,-16.12983c-0.8437,-0.2539 -1.5959,-0.87711 -2.08422,-1.72684c-0.37465,-0.65193 -0.37951,-2.20483 -0.00898,-2.87226c0.34577,-0.62283 1.03457,-1.26319 1.6972,-1.57785l0.54839,-0.2604l13.412,0l13.412,0l0.56759,0.27175c0.77469,0.3709 1.59034,1.26968 1.81558,2.00063c0.39848,1.29313 0.11793,2.344 -0.88342,3.309c-1.14349,1.10198 -0.02518,1.02597 -14.9632,1.01714c-10.49699,-0.0062 -13.1012,-0.03726 -13.51294,-0.16117zm-7.4414,-16.87974c-1.18386,-0.30942 -2.08362,-1.17668 -2.43735,-2.34929c-0.34893,-1.15673 0.06082,-2.43125 1.05997,-3.29696c1.0631,-0.92113 -0.10499,-0.86492 17.26358,-0.83068l15.43193,0.03042l0.63886,0.34101c2.51518,1.34255 2.40179,4.69334 -0.20104,5.94078l-0.55704,0.26697l-15.31948,0.02205c-12.09373,0.01741 -15.43739,-0.00877 -15.87942,-0.1243zm6.96589,-17.07863c-1.16007,-0.55865 -1.80384,-1.47196 -1.90652,-2.70477c-0.11459,-1.37578 0.70534,-2.70352 2.02424,-3.27791l0.6294,-0.27411l13.29278,0l13.29278,0l0.67735,0.32055c2.53515,1.19976 2.65134,4.5788 0.20239,5.88591l-0.6413,0.34229l-13.41878,0.03064l-13.41878,0.03064l-0.73355,-0.35325zm13.41376,-16.24268c-1.32039,-0.45752 -2.23509,-1.72847 -2.23509,-3.1056c0,-0.92411 0.31326,-1.64414 1.00558,-2.31132c1.07239,-1.03347 0.20449,-0.96908 13.06212,-0.96908c12.85763,0 11.98973,-0.06439 13.06212,0.96908c1.62065,1.56183 1.25398,4.0645 -0.7629,5.2071l-0.55627,0.31514l-11.56412,0.02484c-9.45335,0.0203 -11.64577,-0.00346 -12.01143,-0.13015zm65.04497,-11.90502c-0.8501,-0.32283 -1.52398,-1.04681 -1.69667,-1.82282c-0.18681,-0.83946 -0.17841,-5.55091 0.01023,-5.7327c0.10484,-0.10104 1.08826,-0.13787 3.68115,-0.13787c2.92199,0 3.56272,0.0286 3.67953,0.16424c0.10306,0.11967 0.13128,0.94059 0.10401,3.02527l-0.03743,2.86103l-0.35765,0.55287c-0.24859,0.38428 -0.5576,0.66169 -1.01335,0.90973c-0.62946,0.34258 -0.71772,0.35799 -2.20553,0.38523c-1.32209,0.0242 -1.64012,-0.00593 -2.16429,-0.20498l0,0zm-6.4688,-9.0819c-0.6938,-0.13122 -1.36187,-0.56959 -1.76765,-1.1599c-0.32302,-0.46991 -0.32956,-0.51435 -0.36762,-2.49789c-0.02432,-1.26742 0.01098,-2.18062 0.09479,-2.45221c0.17024,-0.55167 0.73848,-1.17624 1.36328,-1.49844l0.48816,-0.25174l9.00094,0l9.00094,0l0.49514,0.25517c0.59606,0.30717 1.19447,0.97598 1.36505,1.52563c0.07356,0.23704 0.10889,1.23114 0.08604,2.42158c-0.03806,1.98354 -0.0446,2.02798 -0.36762,2.49789c-0.4264,0.6203 -1.0682,1.02197 -1.86591,1.16776c-0.78706,0.14385 -16.76133,0.13668 -17.52556,-0.00786l0,0z"/>
                        
</svg>