<svg viewBox="-38 0 300 200" xmlns="http://www.w3.org/2000/svg">
                                <path
                                    d="m 60.56455,186.32521 c -1.139919,-1.44917 -2.07258,-3.28649 -2.07258,-4.08294 0,-1.86406 88.85296,-178.9923011 90.72922,-180.8685671 1.97913,-1.97912591 7.6403,-1.77862891 9.49751,0.336366 3.89077,4.430805 4.69491,2.598858 -41.84324,95.3258141 C 92.271974,146.05818 71.513481,186.7957 70.745479,187.5637 c -2.401178,2.40118 -7.838227,1.73977 -10.180929,-1.23849 z M 24.365868,121.21007 C 11.380107,108.14757 0.47430812,96.644063 0.13075902,95.646723 c -0.3435491,-0.99734 0.013573,-3.02234 0.7936037,-4.5 C 1.7043939,89.669064 12.636123,78.222569 25.217095,65.710069 49.551262,41.508341 50.591846,40.791106 55.547853,44.804237 c 1.519317,1.230269 2.27745,2.919491 2.27745,5.074466 0,2.868963 -2.311766,5.544034 -20.666878,23.914769 L 16.491547,94.477943 37.002723,114.96901 c 11.281147,11.27008 20.756172,21.26156 21.055611,22.20329 0.573811,1.80461 -1.10525,5.77996 -2.966068,7.02246 -0.605163,0.40408 -2.453812,0.74158 -4.108109,0.75 -2.604119,0.0132 -6.176704,-3.17231 -26.618289,-23.73469 z m 139.871962,22.5 c -0.90002,-0.6875 -1.94275,-2.51913 -2.31718,-4.07029 -0.635,-2.63065 0.7389,-4.24559 20.43187,-24.01641 L 203.46518,94.427253 182.81191,73.773982 C 164.45027,55.412345 162.15864,52.761636 162.15864,49.884558 c 0,-2.161068 0.75659,-3.848806 2.27745,-5.080321 4.956,-4.013131 5.99659,-3.295896 30.33076,20.905832 12.58097,12.5125 23.5127,23.958995 24.29273,25.436654 0.78003,1.47766 1.13715,3.50266 0.7936,4.5 -0.34355,0.99734 -11.24935,12.500847 -24.23511,25.563347 -20.58267,20.7043 -24.00374,23.75 -26.67716,23.75 -1.68667,0 -3.80306,-0.5625 -4.70308,-1.25 z"
                                    style="fill:#ffffff" />
                            </svg>