<svg width="180" height="130" xmlns="http://www.w3.org/2000/svg">
                                <path stroke="null" id="svg_1" fill="#ffffff" stroke-width="1.33333" d="m88.41094,108.24849c-3.60271,-0.35536 -6.63348,-1.60405 -10.81197,-4.45461c-4.26849,-2.91195 -15.56143,-11.80314 -22.77746,-17.93322c-4.81331,-4.08894 -7.06455,-6.16543 -11.19588,-10.32678l-3.66774,-3.69439l-0.27376,0.76327c-0.90057,2.51089 -0.88433,2.48265 -1.6514,2.87065c-0.5681,0.28735 -1.14403,0.39853 -2.63773,0.50918c-2.29055,0.16967 -12.554,0.17577 -16.57363,0.00985c-3.5504,-0.14657 -3.91208,-0.27338 -4.27023,-1.49733c-0.44101,-1.50715 -0.53442,-7.46685 -0.5371,-34.26857l-0.00265,-26.49677l0.91365,-0.92159c1.21426,-1.22482 1.49842,-1.27439 5.51356,-0.96182c11.71931,0.91232 22.03675,2.80927 26.8974,4.94532c2.50275,1.09985 3.68606,1.96179 4.25565,3.09986c0.29628,0.59198 0.31561,0.82218 0.23043,2.74324l-0.09299,2.09703l12.44611,0l12.44611,0l2.43587,-1.64332c2.77419,-1.87157 4.67194,-2.86241 6.7936,-3.54704c2.20071,-0.71014 3.6516,-0.8749 6.80596,-0.77287c3.13051,0.10126 4.74111,0.39517 7.48796,1.36643c1.90184,0.67247 2.59576,0.95877 8.74743,3.60903c4.6307,1.995 12.04437,5.02354 12.70531,5.19022l0.44762,0.11288l-0.10675,-0.72565c-0.21492,-1.46086 0.50381,-2.77675 1.91285,-3.50217c0.3917,-0.20166 1.75952,-0.73555 3.0396,-1.18641c9.25194,-3.25872 18.07038,-4.79992 30.99225,-5.41653c4.38684,-0.20933 6.02668,-0.09683 6.77029,0.46448c0.70881,0.53503 1.07391,1.25309 1.2098,2.37933c0.16803,1.39258 0.16697,56.84179 -0.00116,58.43066c-0.13642,1.28961 -0.45828,1.97123 -1.18962,2.51931c-0.85459,0.64044 -1.77282,0.68925 -12.1801,0.6475l-9.93029,-0.03984l-0.51886,-0.59279c-0.62401,-0.71293 -1.19139,-1.81304 -1.65165,-3.20245c-0.21115,-0.63741 -0.43725,-1.04726 -0.59501,-1.07862c-0.23772,-0.04725 -2.10347,1.14948 -3.92458,2.51731l-0.79401,0.59636l-0.08198,2.10615c-0.09793,2.51546 -0.39643,3.54064 -1.53708,5.27903c-1.68951,2.57485 -4.42008,4.36846 -7.4793,4.91285c-0.68379,0.12168 -1.39569,0.32305 -1.58199,0.44748c-0.18631,0.12443 -0.72854,0.79327 -1.20496,1.48632c-1.33072,1.93579 -2.98488,3.23502 -5.45133,4.28165c-1.50057,0.63676 -3.72275,1.02462 -5.08901,0.88823c-0.57744,-0.05765 -1.18789,-0.06016 -1.35657,-0.00558c-0.16867,0.05457 -0.69292,0.62233 -1.16498,1.2617c-1.63397,2.21301 -4.04579,4.13348 -6.02109,4.79447c-1.73408,0.58027 -3.67245,0.7485 -5.20629,0.45186c-1.45735,-0.28184 -1.38355,-0.29757 -4.20838,0.89682c-1.19351,0.50463 -1.49583,0.56499 -3.18079,0.635c-1.02406,0.04255 -2.42051,0.02228 -3.10322,-0.04508l0.00006,-0.00001zm2.31868,-6.84859c-0.32335,-0.36969 -2.6946,-2.91409 -5.26945,-5.65422c-7.6536,-8.14488 -7.98805,-8.55615 -7.98805,-9.82275c0,-1.34206 0.58965,-2.28271 1.78434,-2.84653c0.93992,-0.44358 1.74549,-0.386 2.63382,0.18825c0.41529,0.26846 3.8328,3.59616 7.59445,7.39488c9.17934,9.26978 9.81317,9.81911 11.33905,9.82734c0.86808,0.00474 2.30718,-0.73176 3.37474,-1.72698c1.05221,-0.98091 1.11507,-1.32875 0.4371,-2.41847c-0.2503,-0.4023 -2.74645,-3.12864 -5.547,-6.05853c-7.69452,-8.04989 -8.77326,-9.30271 -8.98071,-10.42986c-0.30124,-1.63677 1.37883,-3.58356 3.12838,-3.62504c0.87186,-0.02068 1.13298,0.21703 9.45013,8.60247c8.24942,8.31718 9.06891,9.0173 10.55485,9.0173c0.84015,0 2.1107,-0.39021 3.2204,-0.98905c0.89485,-0.48289 1.81767,-1.37272 1.81767,-1.75267c0,-0.29426 -1.80635,-2.27092 -8.84034,-9.67385c-9.89993,-10.41916 -9.77894,-10.27445 -9.77894,-11.69607c0,-1.17578 0.6495,-2.22123 1.73133,-2.78679c0.87736,-0.45867 1.70247,-0.54051 2.31824,-0.22994c0.29023,0.14638 4.15844,3.98445 8.59603,8.52907c10.4792,10.7319 11.52762,11.65416 12.97945,11.41752c1.98513,-0.32357 3.70778,-2.32851 3.51007,-4.08528c-0.10029,-0.89104 -1.02565,-2.84689 -1.93866,-4.09751c-0.94676,-1.29684 -5.75087,-6.19225 -8.34444,-8.503c-2.55689,-2.27808 -7.40114,-6.41083 -11.7922,-10.06022c-5.08529,-4.22636 -11.59176,-9.77245 -12.77064,-10.88564c-0.57126,-0.53943 -1.15061,-1.06826 -1.28743,-1.17518c-0.20536,-0.16046 -0.59806,-0.04542 -2.24984,0.65905c-1.10057,0.4694 -2.4898,1.00604 -3.08718,1.19255c-1.40978,0.44016 -1.91894,0.7968 -3.9319,2.75411c-3.52575,3.42827 -6.06693,4.68393 -10.00435,4.94341c-6.12243,0.40348 -10.72393,-2.07733 -11.8217,-6.37342c-0.30338,-1.18727 -0.29724,-3.84519 0.01246,-5.39308c0.67184,-3.35787 3.24294,-8.16511 6.80612,-12.7255c0.73076,-0.93527 1.32865,-1.73596 1.32865,-1.7793c0,-0.04334 -4.29274,-0.07881 -9.53942,-0.07881l-9.53942,0l-0.08079,0.35586c-0.04443,0.19572 -0.32057,1.49461 -0.61364,2.88642c-1.31975,6.26758 -4.03407,16.85126 -7.19978,28.07342l-0.60232,2.13516l1.25847,1.4113c2.48802,2.79018 9.06558,9.40879 11.49907,11.57084c5.489,4.87675 10.94598,9.30921 20.37133,16.54673c6.75908,5.19015 8.44414,6.28356 11.0487,7.1692c1.30176,0.44264 3.24105,0.83942 4.1686,0.85288l0.83264,0.01208l-0.58789,-0.67217l0,-0.00001zm69.09446,-51.00534l-0.03925,-25.73926l-2.32741,0.04715c-4.33166,0.08775 -12.57613,1.01754 -17.19409,1.93912c-3.43133,0.68477 -9.44778,2.27099 -10.22787,2.69656c-0.39078,0.21318 -0.31497,0.64691 0.43571,2.49272c4.55952,11.21116 8.6382,22.45466 13.3601,36.82914l2.45459,7.4723l6.78874,0.00119l6.78874,0.00119l-0.03925,-25.74009zm-24.84962,22.62917c1.5011,-1.01465 2.76318,-1.93491 2.80464,-2.04503c0.14422,-0.38311 -4.01365,-12.57634 -7.78814,-22.83923c-2.14714,-5.83808 -3.92678,-10.47715 -4.06953,-10.60824c-0.06422,-0.05898 -1.7576,-0.72976 -3.76305,-1.49062c-4.6908,-1.77968 -9.83273,-3.87139 -16.91252,-6.87991c-8.4523,-3.59177 -10.10816,-4.09654 -13.47312,-4.1071c-3.90743,-0.01226 -7.53849,1.67886 -12.04363,5.60917c-5.41233,4.72176 -8.40415,8.29191 -10.48707,12.51431c-1.10434,2.23865 -1.56289,3.63938 -1.66181,5.07632c-0.07805,1.13381 -0.07479,1.14588 0.45657,1.68751c0.76774,0.78258 1.96159,1.10733 4.00469,1.08933c1.94868,-0.01716 3.21106,-0.37038 4.60436,-1.28833c1.20418,-0.79334 4.02421,-3.55039 4.40048,-4.3022c0.35897,-0.71724 1.0922,-1.08998 3.18825,-1.62075c0.84625,-0.21429 3.022,-0.96811 4.83501,-1.67516c1.81301,-0.70705 3.6034,-1.32843 3.97865,-1.38086c0.95289,-0.13313 1.78345,0.36368 3.89654,2.33078c2.35521,2.19249 7.11387,6.27778 14.35235,12.32144c3.37087,2.81445 6.82707,5.71909 7.68045,6.45476c5.17488,4.46105 10.1107,9.23953 12.16219,11.77451c0.54485,0.67325 1.01645,1.22408 1.04802,1.22408c0.03157,0 1.28557,-0.83017 2.78667,-1.84481zm-100.34438,-5.70734c3.86764,-12.48899 7.97815,-28.37653 9.85182,-38.07828c0.48092,-2.49016 1.02713,-5.80323 1.02713,-6.2301c0,-0.22167 -2.49985,-1.09542 -4.60383,-1.60914c-2.28185,-0.55715 -6.9104,-1.42706 -9.98127,-1.87591c-1.88017,-0.27482 -10.18343,-1.27575 -10.58301,-1.27575c-0.06769,0 -0.12308,11.60105 -0.12308,25.7801l0,25.7801l6.82041,0l6.8204,0l0.77143,-2.49102z"/>
                            </svg>