<svg xmlns="http://www.w3.org/2000/svg">
                                <path stroke="null" id="svg_1" fill="#ffffff" d="m86.26309,112.96904l-1.81183,-0.12251l-1.62466,-4.54051c-0.89356,-2.49728 -1.65842,-4.61489 -1.69969,-4.70579c-0.06193,-0.13643 -3.90503,-1.20723 -5.78793,-1.61269c-0.40126,-0.08641 -1.12826,0.41949 -3.51043,2.44277c-1.6524,1.40346 -3.37527,2.88321 -3.82861,3.28832l-0.82425,0.73657l-2.68618,-1.31042c-3.78612,-1.84701 -6.87604,-3.79362 -6.87604,-4.33181c0,-0.23535 0.40766,-2.28777 0.90592,-4.56093c0.49825,-2.27316 0.90592,-4.30329 0.90592,-4.5114c0,-0.49326 -4.26988,-4.56962 -4.78656,-4.56962c-0.21799,0 -2.34449,0.38919 -4.72557,0.86486c-2.38107,0.47567 -4.53093,0.86486 -4.77745,0.86486c-0.56274,0 -2.60182,-2.94813 -4.52788,-6.54646l-1.36304,-2.54649l3.43394,-3.67753c2.74967,-2.94472 3.41052,-3.77291 3.31642,-4.15617c-0.06464,-0.26325 -0.42009,-1.59754 -0.7899,-2.9651l-0.67238,-2.48647l-4.95352,-1.62161l-4.95352,-1.62161l-0.1812,-2.64863c-0.09966,-1.45675 -0.09966,-3.84051 0,-5.29726l0.1812,-2.64863l4.95352,-1.62161l4.95352,-1.62161l0.67238,-2.48647c0.36981,-1.36756 0.72527,-2.70185 0.7899,-2.9651c0.0941,-0.38325 -0.56675,-1.21144 -3.31642,-4.15617l-3.43394,-3.67753l1.36304,-2.54649c0.74967,-1.40057 1.97428,-3.44648 2.72135,-4.54648c1.07019,-1.57576 1.46816,-1.99822 1.87621,-1.99165c0.28485,0.00458 2.58869,0.42171 5.11966,0.92693l4.60176,0.91859l2.30586,-2.17017l2.30586,-2.17017l-0.96254,-4.50784c-0.52939,-2.47931 -0.96254,-4.69638 -0.96254,-4.92683c0,-0.52752 3.12218,-2.49162 6.85724,-4.31375l2.66738,-1.30127l3.85212,3.27831c3.08452,2.62505 3.95202,3.25595 4.35347,3.16611c0.27575,-0.06171 1.67338,-0.40105 3.10586,-0.7541l2.60451,-0.64191l1.69859,-4.72902l1.69859,-4.72902l2.77437,-0.15612c1.5259,-0.08586 4.02284,-0.08586 5.54874,0l2.77437,0.15612l1.69859,4.72902l1.69859,4.72902l2.60451,0.64191c1.43248,0.35305 2.83012,0.6924 3.10586,0.7541c0.40147,0.08985 1.27009,-0.54203 4.36003,-3.17169l3.85868,-3.28389l2.24155,1.08307c2.29683,1.10978 5.86807,3.14566 6.83909,3.89881l0.5441,0.42202l-0.96392,4.50416c-0.53016,2.47729 -0.9633,4.65572 -0.96254,4.84095c0.00181,0.46491 4.29825,4.52803 4.78794,4.52803c0.21799,0 2.34449,-0.38919 4.72557,-0.86486c2.38108,-0.47567 4.53093,-0.86486 4.77745,-0.86486c0.56274,0 2.60182,2.94813 4.52788,6.54646l1.36304,2.54649l-3.43394,3.67753c-2.74967,2.94472 -3.41052,3.77291 -3.31642,4.15617c0.06464,0.26325 0.42009,1.59754 0.7899,2.9651l0.67238,2.48647l4.95352,1.62161l4.95352,1.62161l0.1812,2.64863c0.09966,1.45675 0.09966,3.84051 0,5.29726l-0.1812,2.64863l-4.95352,1.62161l-4.95352,1.62161l-0.67238,2.48647c-0.36981,1.36756 -0.72527,2.70185 -0.7899,2.9651c-0.0941,0.38325 0.56675,1.21144 3.31642,4.15617l3.43394,3.67753l-1.36304,2.54649c-1.92606,3.59833 -3.96514,6.54646 -4.52788,6.54646c-0.24652,0 -2.39637,-0.38919 -4.77745,-0.86486c-2.38107,-0.47567 -4.50359,-0.86486 -4.7167,-0.86486c-0.21311,0 -1.40837,0.96313 -2.65614,2.14028l-2.26868,2.14028l1.01209,4.69163c0.68972,3.19721 0.9436,4.79531 0.79705,5.0171c-0.30194,0.45698 -4.29471,2.81581 -7.05155,4.16589l-2.31433,1.13337l-3.86546,-3.28965c-3.09555,-2.63444 -3.96531,-3.26731 -4.3668,-3.17746c-0.27575,0.06171 -1.67338,0.40105 -3.10586,0.7541l-2.60451,0.64191l-1.69859,4.72902l-1.69859,4.72902l-2.03831,0.13927c-2.36415,0.16153 -4.6902,0.15615 -7.24733,-0.01676l0,0zm7.47683,-8.88793c1.29543,-3.73871 1.65751,-4.56435 2.03226,-4.63411c3.42847,-0.63822 6.49386,-1.36817 8.22233,-1.95794l2.1279,-0.72607l3.75415,3.2186l3.75415,3.2186l1.03734,-0.57017c2.41683,-1.32841 2.76115,-1.58284 2.64635,-1.95549c-0.06243,-0.20265 -0.53655,-2.30736 -1.05361,-4.67714l-0.94011,-4.30869l0.98503,-0.75779c1.27204,-0.9786 5.08784,-4.62158 6.11341,-5.83654l0.79477,-0.94153l4.51223,0.89374c2.48173,0.49156 4.68591,0.94472 4.89818,1.00701c0.39079,0.11469 0.65345,-0.20831 2.04178,-2.51084l0.59069,-0.97965l-3.34843,-3.59445l-3.34843,-3.59445l0.87025,-2.48462c0.47864,-1.36654 1.12297,-3.67368 1.43184,-5.12699c0.30887,-1.45331 0.59204,-2.66899 0.62925,-2.70152c0.03722,-0.03253 2.18242,-0.71668 4.76711,-1.52035l4.69944,-1.46121l0,-2.10607l0,-2.10607l-4.76255,-1.47023c-3.97932,-1.22844 -4.7776,-1.54348 -4.85411,-1.91563c-0.68962,-3.3546 -1.43376,-6.20426 -2.04992,-7.85006l-0.75691,-2.02177l3.36534,-3.59768l3.36533,-3.59767l-0.5948,-0.98635c-1.39319,-2.31032 -1.65485,-2.63229 -2.04588,-2.51753c-0.21227,0.0623 -2.41645,0.51545 -4.89818,1.00701l-4.51223,0.89374l-0.79477,-0.94153c-1.0234,-1.21239 -4.84058,-4.85738 -6.10655,-5.8311l-0.97817,-0.75235l0.93203,-4.31413c0.51262,-2.37277 0.98366,-4.47993 1.04675,-4.68258c0.11598,-0.37249 -0.22813,-0.62713 -2.63454,-1.94956l-1.02674,-0.56424l-3.77546,3.21345l-3.77546,3.21345l-1.80823,-0.63001c-2.09443,-0.72973 -5.73653,-1.63643 -7.41274,-1.8454c-0.63801,-0.07954 -1.26313,-0.20671 -1.38917,-0.28259c-0.12603,-0.07589 -0.91869,-2.15688 -1.76146,-4.62443l-1.53231,-4.48645l-2.17844,0l-2.17844,0l-1.55424,4.48645c-0.85483,2.46755 -1.57985,4.51553 -1.61114,4.55106c-0.03129,0.03553 -1.30242,0.30586 -2.82472,0.60074c-1.5223,0.29487 -3.93965,0.91021 -5.37189,1.36742l-2.60407,0.83128l-3.75315,-3.20299l-3.75315,-3.20299l-1.0366,0.56976c-2.41597,1.32792 -2.7604,1.58245 -2.64561,1.95508c0.06243,0.20265 0.53655,2.30736 1.05361,4.67714l0.94011,4.30869l-0.98503,0.75779c-1.26966,0.97677 -5.08732,4.62091 -6.10838,5.83075l-0.78973,0.93575l-4.51727,-0.89565c-2.4845,-0.49261 -4.69095,-0.94316 -4.90322,-1.00122c-0.38946,-0.10653 -0.66071,0.22806 -2.04178,2.51854l-0.59069,0.97965l3.34843,3.59445l3.34843,3.59445l-0.87025,2.48462c-0.47864,1.36654 -1.12296,3.67368 -1.43183,5.12699c-0.30887,1.45331 -0.59204,2.66682 -0.62926,2.6967c-0.03722,0.02987 -2.18242,0.72203 -4.76711,1.53812l-4.69944,1.4838l0,2.06377l0,2.06377l4.7652,1.50482c3.9162,1.23672 4.78104,1.58239 4.85411,1.94015c0.66771,3.26915 1.43251,6.19791 2.04726,7.83998l0.75691,2.02177l-3.36533,3.59768l-3.36533,3.59767l0.5948,0.98635c1.38858,2.30267 1.65569,2.63199 2.04588,2.52243c0.21227,-0.0596 2.4169,-0.51224 4.89918,-1.00586l4.51324,-0.8975l0.79377,0.94039c1.02314,1.21212 4.84028,4.85676 6.10755,5.83153l0.98017,0.75394l-0.93817,4.31254c-0.516,2.3719 -0.98793,4.47834 -1.04875,4.68099c-0.11159,0.37181 0.23889,0.63077 2.6381,1.94924l1.02616,0.56392l3.76509,-3.19667l3.76509,-3.19667l2.60257,0.83081c1.43141,0.45694 3.84809,1.07207 5.37039,1.36694c1.5223,0.29487 2.79569,0.5652 2.82977,0.60074c0.03407,0.03553 0.7507,2.08351 1.59252,4.55106l1.53058,4.48645l2.18036,0l2.18036,0l1.57626,-4.54923zm-6.00472,-10.91012l0,-2.27025l-3.49377,0l-3.49377,0l-0.08261,-6.97292c-0.08162,-6.89007 -0.08983,-6.99347 -0.69029,-8.70264c-0.96565,-2.74862 -2.0317,-4.24603 -5.40281,-7.58905c-4.45223,-4.41512 -6.22073,-7.38208 -7.26876,-12.1946c-0.59496,-2.732 -0.4721,-7.25189 0.26741,-9.83777c2.00673,-7.01707 7.94017,-13.08193 15.07957,-15.41357c2.80138,-0.9149 4.95738,-1.19286 8.24592,-1.06309c6.30101,0.24864 11.14982,2.27801 15.53556,6.50207c4.4297,4.2664 6.66327,9.45809 6.66327,15.48806c0,4.2695 -1.11876,8.08723 -3.41274,11.64588c-0.76671,1.1894 -2.1848,2.81548 -4.16089,4.77117c-3.28396,3.25006 -4.46623,4.90862 -5.4823,7.69089l-0.63168,1.72972l-0.07749,6.97292l-0.07749,6.97292l-3.49377,0l-3.49377,0l0,2.27025l0,2.27025l-2.26479,0l-2.26479,0l0,-2.27025zm6.90761,-8.8648l0,-2.16215l-4.64282,0l-4.64282,0l-0.066,1.92882c-0.0363,1.06085 -0.0132,2.06016 0.05132,2.22069c0.09424,0.23446 1.02052,0.28035 4.70883,0.23333l4.5915,-0.05855l0,-2.16215zm-6.90761,-17.24032l0,-10.64577l-3.10953,-2.97429l-3.10953,-2.97429l1.57605,-1.51624l1.57605,-1.51624l2.66587,2.53842l2.66587,2.53842l2.66587,-2.53842l2.66587,-2.53842l1.57605,1.51624l1.57605,1.51624l-3.10953,2.97429l-3.10953,2.97429l0,10.64577l0,10.64578l1.23537,0l1.23537,0l0.13755,-0.81081c0.24382,-1.43724 1.27156,-4.44671 1.97457,-5.782c1.20874,-2.29589 2.25694,-3.61967 5.05186,-6.38007c3.05119,-3.0135 3.88518,-4.07784 4.9683,-6.34057c5.34422,-11.16449 -2.77063,-24.11679 -15.62218,-24.93493c-10.50923,-0.66903 -19.83327,7.67296 -19.81395,17.72705c0.00616,3.2019 1.28073,7.12469 3.18499,9.80246c0.40806,0.57382 1.98454,2.25952 3.50327,3.746c4.35327,4.2608 6.13392,7.35517 6.99866,12.16208l0.14586,0.81081l1.23537,0l1.23537,0l0,-10.64578z"/>
                            </svg>