<svg width="138" height="106" xmlns="http://www.w3.org/2000/svg">
                                <path stroke="null" d="m83.83832,100.51792c-12.5544,-1.13655 -23.60805,-7.72212 -30.50706,-18.17555c-6.34441,-9.61309 -8.37266,-21.36765 -5.63331,-32.64721c3.44117,-14.16939 14.1921,-25.47515 28.11869,-29.56986c1.40743,-0.41381 4.22075,-1.03476 5.5178,-1.21789c0.47268,-0.06674 0.47508,-0.06554 0.54742,0.2726c0.2256,1.05454 1.27562,2.30079 2.39078,2.83756c1.74279,0.83888 4.1385,0.82876 5.86431,-0.02479c1.08808,-0.53814 2.0477,-1.7201 2.23785,-2.75635c0.03898,-0.21241 0.10016,-0.38602 0.13594,-0.38579c0.22641,0.00144 2.19577,0.35483 3.22334,0.57842c3.80339,0.82756 7.9172,2.40601 11.37509,4.36461c1.52598,0.86434 4.00063,2.56607 5.47475,3.76481c12.46665,10.13777 17.88468,26.66858 13.87134,42.3225c-2.96131,11.55055 -10.75618,21.23002 -21.34826,26.50972c-4.14815,2.06768 -8.12986,3.27807 -12.93686,3.93266c-1.74077,0.23704 -6.60727,0.35068 -8.33183,0.19456l0,0.00002zm6.64897,-8.38916c9.7898,-1.06596 18.34456,-6.34117 23.76136,-14.65224c2.94342,-4.51613 4.69808,-9.70667 5.17887,-15.3198c0.14869,-1.73595 0.06899,-5.14189 -0.15997,-6.83626c-0.81865,-6.05833 -3.16014,-11.56889 -6.96154,-16.38358c-1.05187,-1.33224 -3.48927,-3.78515 -4.85578,-4.88666c-8.81845,-7.10836 -20.24771,-9.1108 -30.94419,-5.42154c-4.56981,1.57615 -8.73741,4.22108 -12.25567,7.77793c-4.54894,4.59885 -7.596,10.30136 -8.85052,16.56349c-1.70756,8.52366 -0.02205,17.40613 4.66173,24.5668c1.22593,1.87422 2.31763,3.23065 3.98035,4.94555c5.30377,5.47018 12.06021,8.79096 19.61942,9.64292c1.62939,0.18364 5.1545,0.18539 6.82593,0.0034l0,0l0.00002,0.00001zm-4.17706,-27.95277c-1.17509,-0.39383 -2.07709,-1.18123 -2.5756,-2.24839c-0.40312,-0.86297 -0.49732,-2.03561 -0.2364,-2.94291c0.33782,-1.17471 1.3959,-2.31953 2.51518,-2.72139l0.50057,-0.17972l0,-11.356l0,-11.356l0.91692,0l0.91692,0l0,11.38018c0,9.44431 0.02323,11.38018 0.13655,11.38018c0.0751,0 0.41275,0.13952 0.75034,0.31005c0.75956,0.38369 1.57743,1.23807 1.94579,2.03265c0.24364,0.52554 0.27466,0.71458 0.27466,1.67382c0,1.00114 -0.024,1.13258 -0.3234,1.77147c-0.39837,0.85007 -1.03661,1.51068 -1.8841,1.95018c-0.58237,0.30201 -0.74423,0.33731 -1.66392,0.3629c-0.56034,0.0156 -1.13341,-0.01006 -1.27349,-0.05701l-0.00001,0zm7.10629,-8.13752c-0.40603,-0.86728 -0.97268,-1.46366 -1.81668,-1.912l-0.73041,-0.388l3.50115,-3.54037l3.50115,-3.54037l1.45308,1.46627l1.45308,1.46627l-3.4892,3.52828c-1.91907,1.94056 -3.51238,3.52596 -3.5407,3.52311c-0.02832,-0.00284 -0.17748,-0.27429 -0.33148,-0.60322l0.00001,0.00001zm-63.7513,34.68954c-1.00415,-0.45854 -1.63014,-1.36539 -1.70899,-2.47579c-0.06934,-0.97646 0.17016,-1.63851 0.83637,-2.31198c0.92338,-0.93342 0.16291,-0.87667 11.32212,-0.84496l9.77359,0.02777l0.52159,0.27815c1.2742,0.6795 1.87484,2.22176 1.40646,3.61133c-0.21667,0.6428 -0.88928,1.39038 -1.51666,1.68571l-0.51328,0.24162l-9.83137,-0.00125c-9.66453,-0.00124 -9.83916,-0.00481 -10.28983,-0.21061l0,0l-0.00001,0.00001zm-10.87851,-14.45881c-0.721,-0.2276 -1.3638,-0.78624 -1.7811,-1.54794c-0.32016,-0.58439 -0.32432,-1.97641 -0.00767,-2.5747c0.29548,-0.55831 0.88411,-1.13233 1.45037,-1.41439l0.46864,-0.23342l11.46145,0l11.46145,0l0.48504,0.2436c0.66202,0.33248 1.35905,1.13814 1.55153,1.79337c0.34053,1.15916 0.10078,2.10117 -0.75494,2.96619c-0.97719,0.98782 -0.02152,0.91968 -12.78705,0.91177c-8.97038,-0.00556 -11.19585,-0.0334 -11.54771,-0.14447zm-6.35917,-15.13103c-1.01169,-0.27736 -1.78059,-1.05478 -2.08288,-2.10591c-0.29818,-1.03689 0.05197,-2.17938 0.90582,-2.9554c0.90849,-0.8257 -0.08972,-0.77532 14.75288,-0.74462l13.18761,0.02727l0.54595,0.30568c2.14939,1.20346 2.05249,4.20712 -0.1718,5.32533l-0.47603,0.23931l-13.09152,0.01977c-10.3349,0.01561 -13.19228,-0.00786 -13.57002,-0.11142l-0.00001,0zm5.95282,-15.30931c-0.99136,-0.50077 -1.5415,-1.31947 -1.62925,-2.42456c-0.09792,-1.23325 0.60276,-2.42344 1.72985,-2.93832l0.53786,-0.24571l11.35957,0l11.35957,0l0.57884,0.28734c2.16645,1.07547 2.26575,4.10444 0.17296,5.27614l-0.54803,0.30683l-11.46724,0.02747l-11.46724,0.02747l-0.62687,-0.31665l-0.00001,0.00001zm11.46295,-14.55997c-1.12836,-0.41012 -1.91003,-1.5494 -1.91003,-2.78387c0,-0.82837 0.2677,-1.47381 0.85934,-2.07187c0.91643,-0.9264 0.17475,-0.86869 11.16245,-0.86869c10.9877,0 10.24602,-0.05772 11.16245,0.86869c1.38495,1.40003 1.07161,3.64342 -0.65195,4.66765l-0.47537,0.28249l-9.88231,0.02227c-8.07852,0.0182 -9.95209,-0.0031 -10.26457,-0.11667l-0.00001,-0.00001zm55.58526,-10.67168c-0.72647,-0.28939 -1.30234,-0.93836 -1.44992,-1.63398c-0.15964,-0.75249 -0.15246,-4.97585 0.00874,-5.1388c0.08959,-0.09057 0.92999,-0.12359 3.14579,-0.12359c2.49704,0 3.04458,0.02564 3.1444,0.14723c0.08807,0.10727 0.11219,0.84315 0.08888,2.71186l-0.03199,2.56463l-0.30564,0.49559c-0.21244,0.34447 -0.47651,0.59314 -0.86598,0.81548c-0.53792,0.30709 -0.61334,0.3209 -1.88477,0.34532c-1.12981,0.02169 -1.40159,-0.00532 -1.84953,-0.18374l0,0zm-5.52802,-8.14103c-0.5929,-0.11763 -1.16381,-0.51058 -1.51057,-1.03974c-0.27604,-0.42123 -0.28163,-0.46106 -0.31416,-2.23911c-0.02078,-1.13612 0.00938,-1.95471 0.081,-2.19817c0.14548,-0.49452 0.63108,-1.05438 1.16501,-1.3432l0.41717,-0.22566l7.6919,0l7.6919,0l0.42313,0.22873c0.50937,0.27535 1.02075,0.87487 1.16653,1.36758c0.06286,0.21248 0.09305,1.1036 0.07353,2.17071c-0.03252,1.77805 -0.03811,1.81788 -0.31416,2.23911c-0.36439,0.55604 -0.91285,0.9161 -1.59454,1.04678c-0.6726,0.12895 -14.32367,0.12252 -14.97676,-0.00705l0,0l0.00002,0.00001z" fill="#ffffff" id="svg_1"/>
                            </svg>