<svg width="1920" height="1080" xmlns="http://www.w3.org/2000/svg" stroke="null"
            style="vector-effect: non-scaling-stroke;" version="1.1">
            <metadata stroke="null" style="vector-effect: non-scaling-stroke;" id="metadata5">image/svg+xml</metadata>

            <g stroke="null">
                <title stroke="null">Layer 1</title>
                <g stroke="null" id="layer1">
                    <path fill="#2b282b2b" stroke="null" id="path3972"
                        d="m750.51958,529.50415c-22.83969,-3.1218 -38.31525,-13.68796 -38.5489,-26.31979c-0.05603,-3.04723 -5.13742,-12.05636 -11.29137,-20.02026c-17.82401,-23.06614 -29.19471,-69.96564 -26.80289,-110.55103c1.15197,-19.54845 3.67206,-27.6125 16.9044,-54.09421c9.23769,-18.48737 22.55831,-38.87913 32.81332,-50.23204c18.04653,-19.97884 22.15647,-32.7726 11.41884,-35.54632c-3.21411,-0.82971 -13.80042,-0.44255 -23.52516,0.86105c-13.6794,1.83378 -23.20435,6.07168 -42.08157,18.72378c-23.61296,15.82595 -59.33959,32.09013 -70.49075,32.09013c-2.99215,0 -7.12459,3.93728 -9.18327,8.74958c-6.98914,16.33821 -25.67309,32.18307 -81.46606,69.08721c-30.6258,20.25748 -61.97788,41.56288 -69.67103,47.34538c-23.29086,17.50609 -79.12431,32.42011 -112.30198,29.99761c-31.32652,-2.28731 -44.21692,-10.57552 -50.6978,-32.59725c-10.00903,-34.01046 -3.75704,-74.97256 17.7383,-116.21915c12.89976,-24.75277 17.94511,-46.25072 12.40294,-52.84726c-6.39396,-7.61042 -26.77249,-4.15009 -55.84957,9.48356c-44.0901,20.67283 -60.96894,24.98521 -88.55276,22.62432c-28.62163,-2.44969 -61.23984,-15.68231 -69.55413,-28.21688c-4.35947,-6.57232 -4.97843,-12.08833 -3.15639,-28.13042c2.76157,-24.31454 13.15131,-45.83059 32.27886,-66.84583c7.92963,-8.71238 14.4176,-17.61146 14.4176,-19.77584c0,-9.98501 -23.95804,-20.78126 -46.37896,-20.89987c-26.57287,-0.14067 -60.36376,-23.21303 -74.15805,-50.63532c-5.52192,-10.97727 -7.39936,-20.50721 -7.69557,-39.06276c-0.37595,-23.55057 0.03169,-24.98656 10.07256,-35.50354c6.91916,-7.24695 16.43145,-12.68218 28.07668,-16.04227c9.68677,-2.79516 21.96047,-7.92761 27.27511,-11.4055c5.31456,-3.47798 14.01101,-6.34104 19.32565,-6.36239c5.31456,-0.02405 15.23457,-1.56702 22.04464,-3.43493l12.38182,-3.39621l-2.2962,-22.83514c-1.43432,-14.26415 -5.17491,-28.19932 -9.96605,-37.1273c-11.51236,-21.4522 -10.44908,-38.43001 3.25451,-51.96666c6.00842,-5.93524 17.82159,-14.08944 26.25133,-18.12056c14.4351,-6.90274 16.86497,-7.126 41.75955,-3.83561c18.12498,2.39557 35.43524,7.46408 55.07726,16.12702c15.75461,6.94849 35.16717,14.80631 43.13904,17.46196c24.31464,8.09998 37.34025,14.23353 41.99618,19.77512c7.4075,8.81685 18.16513,11.14073 35.03156,7.56756c12.97804,-2.74932 15.40485,-4.3457 14.09986,-9.27516c-0.86704,-3.27481 -7.47289,-8.28496 -14.67996,-11.13353c-25.4263,-10.04967 -43.56974,-30.73285 -52.06632,-59.35518c-2.78188,-9.37134 -9.54084,-25.82807 -15.01971,-36.57038c-10.32838,-20.25063 -12.28475,-34.4784 -7.81458,-56.82921c5.71889,-28.59486 19.66476,-34.87529 75.25294,-33.88996c46.3359,0.82134 60.39126,4.2932 102.24191,25.25376c10.4752,5.24638 29.19173,14.3371 41.59233,20.20155c16.39122,7.75164 29.14182,17.25221 46.70363,34.79919c13.28643,13.27495 30.31709,28.79668 37.84609,34.49245c7.52892,5.69577 13.68899,12.21351 13.68899,14.48363c0,5.68812 16.673,17.57102 43.48259,30.98979c12.40069,6.20686 31.24315,16.93647 41.87218,23.84353c48.69814,31.64533 72.47122,40.43652 72.47122,26.79971c0,-3.28553 -2.28717,-7.8489 -5.08276,-10.14063c-5.3868,-4.41631 -20.33652,-30.9961 -24.93747,-44.33778c-3.67569,-10.65856 -11.8626,-63.15584 -14.061,-90.16468c-3.08423,-37.88947 9.85382,-79.87113 30.0919,-97.64325c21.06634,-18.49953 37.31945,-29.07262 47.08298,-30.62884c13.07463,-2.08396 40.27339,8.20247 57.184,21.62664c9.4744,7.521 14.43405,9.41592 20.68023,7.90113c4.51935,-1.09548 11.7602,-2.86054 16.09097,-3.92098c5.67745,-1.39024 13.09092,1.21697 26.57287,9.34514c45.24295,27.27694 74.50684,71.2026 102.103,153.25874c4.70818,13.99938 11.15374,29.03299 14.32359,33.40778c3.16977,4.37479 14.17266,24.41162 24.45074,44.52627c17.96413,35.15637 18.62639,37.32381 17.10902,55.99743c-1.59186,19.58789 1.54913,31.24133 11.84284,43.93963c4.77743,5.89327 32.96651,12.60095 35.55683,8.46076c0.69023,-1.10268 -0.27509,-9.08883 -2.14479,-17.74736c-2.4356,-11.28032 -2.36876,-21.2665 0.23615,-35.22967c2.62684,-14.0825 2.66893,-22.22445 0.15214,-29.35712c-7.70162,-21.82387 19.87196,-73.96264 36.37832,-68.78759c3.45414,1.0835 8.63719,-0.07214 11.63483,-2.58244c9.62388,-8.07405 26.16724,-12.80772 38.876,-11.12389c15.86579,2.10215 42.35779,19.1258 64.06421,41.16707c17.65478,17.9273 25.48338,34.29486 40.02813,83.68719c11.88025,40.34448 10.9425,39.2744 21.63854,24.68882c5.62625,-7.67211 14.43598,-14.65546 22.51904,-17.8503c24.04318,-9.50292 59.10416,-5.25025 70.71279,8.57703c3.16243,3.7668 9.618,5.26538 22.68126,5.26538c13.92297,0 25.87981,3.06407 50.33539,12.89895c45.93939,18.47458 53.24442,24.06021 77.90139,59.56718c3.98086,5.7327 8.19722,14.32323 9.36943,19.09023c1.17229,4.767 4.08938,11.49142 6.48233,14.94311c2.39295,3.45178 4.35085,10.25266 4.35085,15.11305c0,7.9005 -1.14189,8.83721 -10.774,8.83721c-6.68357,0 -12.98756,2.41592 -16.60399,6.36329c-5.79686,6.32745 -5.62577,6.36347 30.20325,6.36347c24.11324,0 39.71329,1.51902 47.15884,4.5921c10.26566,4.237 10.97185,5.40542 9.13336,15.11305c-1.09561,5.78655 -2.91314,11.54825 -4.03859,12.80385c-1.12488,1.2556 -11.20873,-0.53396 -22.40754,-3.97709c-20.74078,-6.37653 -40.75375,-7.54288 -55.21787,-3.21789l-8.05234,2.40772l8.05234,1.92384c4.42873,1.05819 10.95113,2.38935 14.4942,2.95825c11.39828,1.83063 7.60818,18.87652 -7.69509,34.60863c-7.70348,7.91942 -13.24104,16.6834 -13.24104,20.95643c0,4.03941 -3.15236,9.83596 -7.00518,12.8813c-9.67661,7.64825 -17.84957,16.05317 -35.63624,36.64783c-17.46128,20.21794 -47.99646,37.31093 -66.57979,37.27005c-6.36026,-0.01207 -28.69774,-2.13656 -49.63895,-4.71692c-53.09325,-6.54206 -63.3127,-14.66491 -59.32241,-47.1523l1.63709,-13.33006l-4.76727,11.13596c-2.62209,6.12472 -9.4607,15.43122 -15.19716,20.68103c-8.50295,7.78145 -11.48277,14.24803 -16.12846,34.99867c-11.54945,51.58814 -18.23584,64.22727 -53.90151,101.88953c-26.06444,27.52352 -47.60631,37.92829 -78.52559,37.92829c-16.33373,0 -25.17838,-1.54973 -30.71368,-5.38183c-4.27587,-2.96005 -13.57193,-9.36468 -20.65789,-14.23281c-19.12223,-13.13671 -31.30152,-39.24513 -33.16847,-71.10219c-1.11875,-19.09671 -0.19479,-27.71579 3.88048,-36.20006c4.79614,-9.98374 18.01493,-56.01057 18.01493,-62.72635c0,-6.43912 -8.77466,-1.44355 -26.04243,14.82657c-10.21486,9.62459 -19.8822,17.49934 -21.48293,17.49934c-1.60073,0 -14.15541,22.5502 -27.89931,50.11172c-13.74406,27.56143 -26.96922,53.69111 -29.38958,58.0659c-2.42036,4.37479 -8.97525,16.54489 -14.56644,27.0444c-5.59134,10.49969 -15.80419,26.38121 -22.69521,35.29262c-6.8911,8.91123 -12.5292,17.92108 -12.5292,20.02188c0,5.13444 -26.89287,33.41562 -46.18772,48.57216c-21.24065,16.68511 -36.60003,17.00852 -52.69512,1.10871c-6.20038,-6.12472 -12.94023,-11.11236 -14.97746,-11.08336c-2.03715,0.02405 -9.88704,6.37761 -17.4441,14.10835c-14.23095,14.55783 -40.31491,28.76525 -57.12062,31.11263c-5.31456,0.74199 -16.18522,0.45813 -24.15702,-0.63131l-0.00089,0.00009l0,0.00018zm582.83543,-501.39953c-5.71954,-6.80764 -7.52279,-3.26887 -2.78777,5.4709c2.54469,4.69675 4.52661,5.92596 5.39696,3.34713c0.75602,-2.24147 -0.41756,-6.20974 -2.60919,-8.81802z"
                        stroke-width="0.26458" />
                </g>
                <path stroke="#000" fill="#fff" opacity="NaN" d="m-1.5,-1" id="svg_1" />
            </g>
        </svg>