<?xml version="1.0" encoding="UTF-8" standalone="no"?>
<svg
   xmlns:dc="http://purl.org/dc/elements/1.1/"
   xmlns:cc="http://creativecommons.org/ns#"
   xmlns:rdf="http://www.w3.org/1999/02/22-rdf-syntax-ns#"
   xmlns:svg="http://www.w3.org/2000/svg"
   xmlns="http://www.w3.org/2000/svg"
   id="svg8"
   version="1.1"
   viewBox="0 0 210 297"
   height="297mm"
   width="210mm">
  <defs
     id="defs2" />
  <metadata
     id="metadata5">
    <rdf:RDF>
      <cc:Work
         rdf:about="">
        <dc:format>image/svg+xml</dc:format>
        <dc:type
           rdf:resource="http://purl.org/dc/dcmitype/StillImage" />
        <dc:title></dc:title>
      </cc:Work>
    </rdf:RDF>
  </metadata>
  <g
     id="layer1">
    <path
       id="path3972"
       d="m 91.810409,95.395674 c -1.876155,-0.2596 -3.147402,-1.13826 -3.166587,-2.1887 -0.0046,-0.2534 -0.422015,-1.00258 -0.927528,-1.66484 -1.464149,-1.91813 -2.398191,-5.8182 -2.20172,-9.19319 0.09463,-1.62561 0.301638,-2.2962 1.388605,-4.49836 0.758833,-1.53737 1.853054,-3.23311 2.695437,-4.17719 1.482434,-1.6614 1.82004,-2.7253 0.938006,-2.95596 -0.264019,-0.069 -1.133633,-0.0368 -1.932477,0.0716 -1.123688,0.15249 -1.906111,0.50491 -3.456775,1.55703 -1.939679,1.31605 -4.874438,2.66855 -5.790446,2.66855 -0.245796,0 -0.585259,0.32742 -0.754365,0.7276 -0.574124,1.35865 -2.108911,2.67628 -6.692008,5.74515 -2.515756,1.68457 -5.091157,3.45628 -5.723115,3.93714 -1.913215,1.45577 -6.499643,2.69599 -9.225018,2.49454 -2.573305,-0.19021 -3.632192,-0.87944 -4.16456,-2.71072 -0.82219,-2.82824 -0.30862,-6.23456 1.457116,-9.66454 1.059643,-2.05839 1.4741,-3.84611 1.018834,-4.39467 -0.525233,-0.63287 -2.199222,-0.34511 -4.587748,0.78863 -3.621773,1.71911 -5.00828,2.07772 -7.274153,1.88139 -2.351119,-0.20371 -5.03053,-1.30411 -5.713506,-2.34646 -0.358108,-0.54654 -0.408949,-1.00524 -0.259282,-2.33927 0.226848,-2.02195 1.080313,-3.81118 2.651544,-5.55876 0.651381,-0.7245 1.184329,-1.46453 1.184329,-1.64452 0,-0.83033 -1.968031,-1.72813 -3.809794,-1.73799 -2.182822,-0.0117 -4.958569,-1.93035 -6.091701,-4.21073 -0.453599,-0.91285 -0.60782,-1.70534 -0.632148,-3.24838 -0.03088,-1.95842 0.0026,-2.07783 0.827415,-2.9524 0.568362,-0.60264 1.349753,-1.05462 2.306347,-1.33404 0.795716,-0.23244 1.803943,-0.65924 2.240506,-0.94846 0.436562,-0.28922 1.150937,-0.52731 1.5875,-0.52908 0.436562,-0.002 1.251445,-0.13031 1.810851,-0.28564 l 1.0171,-0.28242 -0.188615,-1.89892 c -0.117821,-1.18618 -0.425094,-2.345 -0.818663,-3.08743 -0.945678,-1.78392 -0.858337,-3.19576 0.267339,-4.32144 0.493563,-0.49356 1.463949,-1.17165 2.156412,-1.50687 1.185765,-0.57402 1.385367,-0.59258 3.430324,-0.31896 1.488879,0.19921 2.910829,0.6207 4.524316,1.34109 1.294159,0.57782 2.888801,1.23126 3.543644,1.4521 1.997324,0.67358 3.067318,1.18363 3.449773,1.64446 0.608491,0.73319 1.492176,0.92644 2.877658,0.6293 1.066081,-0.22863 1.265434,-0.36138 1.158235,-0.7713 -0.07122,-0.27233 -0.613862,-0.68896 -1.205886,-0.92584 -2.088639,-0.83571 -3.579021,-2.55568 -4.276976,-4.93585 -0.228524,-0.7793 -0.783728,-2.14781 -1.23379,-3.04112 -0.848418,-1.684 -1.009134,-2.86715 -0.641929,-4.7258 0.469784,-2.37789 1.615361,-2.90016 6.18164,-2.81822 3.806246,0.0683 4.960832,0.35701 8.39864,2.10005 0.860481,0.43628 2.397948,1.19224 3.416594,1.67992 1.346443,0.64461 2.393841,1.43466 3.836458,2.89383 1.091406,1.10392 2.490391,2.39467 3.108854,2.86832 0.618464,0.47365 1.124479,1.01565 1.124479,1.20443 0,0.47301 1.369608,1.46117 3.571875,2.57705 1.018646,0.51615 2.566459,1.4084 3.439584,1.98278 4.000299,2.63156 5.953129,3.36262 5.953129,2.22861 0,-0.27322 -0.18788,-0.6527 -0.417519,-0.84327 -0.442508,-0.36725 -1.67054,-2.57757 -2.048489,-3.68704 -0.301935,-0.88634 -0.974445,-5.25191 -1.155039,-7.49791 -0.253349,-3.15081 0.80944,-6.64192 2.471891,-8.11981 1.730496,-1.53838 3.065606,-2.41762 3.867626,-2.54703 1.07401,-0.1733 3.30825,0.6821 4.697367,1.79843 0.77827,0.62543 1.18568,0.78301 1.69877,0.65704 0.37124,-0.0911 0.96604,-0.23788 1.32179,-0.32606 0.46637,-0.11561 1.07535,0.1012 2.18282,0.77712 3.71647,2.26829 6.12035,5.92106 8.38723,12.74468 0.38675,1.16416 0.91622,2.41432 1.17661,2.77812 0.26038,0.3638 1.16421,2.03002 2.0085,3.70271 1.47566,2.92353 1.53006,3.10377 1.40542,4.65663 -0.13076,1.62889 0.12725,2.59796 0.97283,3.65393 0.39244,0.49007 2.70803,1.04787 2.92081,0.70358 0.0567,-0.0917 -0.0226,-0.75581 -0.17618,-1.47583 -0.20007,-0.93805 -0.19458,-1.76848 0.0194,-2.92963 0.21578,-1.17107 0.21924,-1.84814 0.0125,-2.44128 -0.63265,-1.81483 1.63238,-6.15058 2.98829,-5.72023 0.28374,0.0901 0.7095,-0.006 0.95574,-0.21475 0.79055,-0.67142 2.1495,-1.06506 3.19346,-0.92504 1.30329,0.17481 3.47947,1.59046 5.26254,3.42337 1.45025,1.4908 2.09333,2.85189 3.2881,6.95925 0.9759,3.35496 0.89887,3.26598 1.77749,2.05307 0.46217,-0.638 1.18584,-1.21872 1.84982,-1.48439 1.97502,-0.79024 4.8551,-0.4366 5.80869,0.71325 0.25978,0.31324 0.79007,0.43786 1.86315,0.43786 1.1437,0 2.12589,0.2548 4.13479,1.07265 3.77368,1.53631 4.37375,2.0008 6.39919,4.95348 0.32701,0.47672 0.67336,1.19109 0.76965,1.5875 0.0963,0.39641 0.33592,0.9556 0.53249,1.24264 0.19657,0.28704 0.3574,0.85259 0.3574,1.25677 0,0.65699 -0.0938,0.73488 -0.88503,0.73488 -0.54902,0 -1.06686,0.2009 -1.36393,0.52916 -0.47618,0.52618 -0.46213,0.52917 2.48104,0.52917 1.98078,0 3.26224,0.12632 3.87385,0.38187 0.84327,0.35234 0.90128,0.4495 0.75026,1.25677 -0.09,0.4812 -0.2393,0.96033 -0.33175,1.06474 -0.0924,0.10441 -0.92074,-0.0444 -1.84066,-0.33073 -1.70375,-0.53026 -3.34771,-0.62725 -4.53586,-0.26759 l -0.66146,0.20022 0.66146,0.15998 c 0.3638,0.088 0.89958,0.19869 1.19062,0.246 0.93631,0.15223 0.62497,1.56973 -0.63211,2.87798 -0.6328,0.65856 -1.08768,1.38736 -1.08768,1.74269 0,0.33591 -0.25895,0.81794 -0.57544,1.07118 -0.79488,0.63601 -1.46625,1.33495 -2.92733,3.04756 -1.43435,1.68128 -3.94266,3.1027 -5.46918,3.0993 -0.52246,-0.001 -2.35737,-0.17767 -4.07758,-0.39225 -4.36133,-0.54402 -5.20081,-1.2195 -4.87303,-3.92109 l 0.13448,-1.1085 -0.39161,0.92604 c -0.21539,0.50932 -0.77715,1.28323 -1.24837,1.71979 -0.69847,0.64709 -0.94325,1.18484 -1.32487,2.91042 -0.94873,4.28996 -1.49798,5.34101 -4.42773,8.47292 -2.14106,2.2888 -3.91061,3.15404 -6.45047,3.15404 -1.34173,0 -2.06827,-0.12887 -2.52297,-0.44754 -0.35124,-0.24615 -1.11486,-0.77875 -1.69694,-1.18357 -1.57079,-1.09242 -2.57126,-3.26354 -2.72462,-5.91271 -0.0919,-1.58804 -0.016,-2.30479 0.31876,-3.01032 0.39398,-0.83023 1.47983,-4.65772 1.47983,-5.21619 0,-0.53546 -0.72079,-0.12004 -2.13925,1.23295 -0.8391,0.80036 -1.63322,1.45521 -1.76471,1.45521 -0.13149,0 -1.16279,1.87523 -2.29178,4.16719 -1.129,2.29195 -2.21538,4.46484 -2.4142,4.82864 -0.19882,0.3638 -0.73727,1.37584 -1.19656,2.24896 -0.4593,0.87313 -1.29823,2.19381 -1.86429,2.93486 -0.56607,0.74104 -1.02921,1.49028 -1.02921,1.66498 0,0.42697 -2.20911,2.77877 -3.79408,4.03916 -1.74481,1.3875 -3.0065,1.41439 -4.32863,0.0922 -0.50933,-0.50932 -1.06297,-0.92408 -1.230317,-0.92167 -0.16734,0.002 -0.81217,0.53035 -1.43294,1.17322 -1.169,1.2106 -3.31166,2.39206 -4.69216,2.58726 -0.43656,0.0617 -1.32953,0.0381 -1.984374,-0.0525 z M 139.6873,53.700334 c -0.46983,-0.56611 -0.61796,-0.27183 -0.229,0.45495 0.20903,0.39057 0.37184,0.49279 0.44333,0.27834 0.0621,-0.1864 -0.0343,-0.51639 -0.21433,-0.73329 z"
       style="fill:#000;stroke-width:0.26458335" />
  </g>
</svg>
