<svg width="210" height="100" xmlns="http://www.w3.org/2000/svg" version="1.1">

 <metadata id="metadata5">image/svg+xml</metadata>
 <g>
  <title>Layer 1</title>
  <g id="layer1">
   <path fill="#000000" stroke-width="0.26458" d="m91.81041,44.39567c-1.87616,-0.2596 -3.1474,-1.13826 -3.16659,-2.1887c-0.0046,-0.2534 -0.42201,-1.00258 -0.92753,-1.66484c-1.46415,-1.91813 -2.39819,-5.8182 -2.20172,-9.19319c0.09463,-1.62561 0.30164,-2.2962 1.38861,-4.49836c0.75883,-1.53737 1.85305,-3.23311 2.69544,-4.17719c1.48243,-1.6614 1.82004,-2.7253 0.938,-2.95596c-0.26402,-0.069 -1.13363,-0.0368 -1.93247,0.0716c-1.12369,0.15249 -1.90612,0.50491 -3.45678,1.55703c-1.93968,1.31605 -4.87444,2.66855 -5.79045,2.66855c-0.24579,0 -0.58525,0.32742 -0.75436,0.7276c-0.57412,1.35865 -2.10891,2.67628 -6.69201,5.74515c-2.51575,1.68457 -5.09116,3.45628 -5.72311,3.93714c-1.91322,1.45577 -6.49965,2.69599 -9.22502,2.49454c-2.57331,-0.19021 -3.63219,-0.87944 -4.16456,-2.71072c-0.82219,-2.82824 -0.30862,-6.23456 1.45711,-9.66454c1.05965,-2.05839 1.4741,-3.84611 1.01884,-4.39467c-0.52523,-0.63287 -2.19922,-0.34511 -4.58775,0.78863c-3.62177,1.71911 -5.00828,2.07772 -7.27415,1.88139c-2.35112,-0.20371 -5.03053,-1.30411 -5.71351,-2.34646c-0.35811,-0.54654 -0.40895,-1.00524 -0.25928,-2.33927c0.22685,-2.02195 1.08031,-3.81118 2.65154,-5.55876c0.65138,-0.7245 1.18433,-1.46453 1.18433,-1.64452c0,-0.83033 -1.96803,-1.72813 -3.80979,-1.73799c-2.18282,-0.0117 -4.95857,-1.93035 -6.0917,-4.21073c-0.4536,-0.91285 -0.60782,-1.70534 -0.63215,-3.24838c-0.03088,-1.95842 0.0026,-2.07783 0.82741,-2.9524c0.56837,-0.60264 1.34976,-1.05462 2.30635,-1.33404c0.79572,-0.23244 1.80394,-0.65924 2.24051,-0.94846c0.43656,-0.28922 1.15093,-0.52731 1.5875,-0.52908c0.43656,-0.002 1.25144,-0.13031 1.81085,-0.28564l1.0171,-0.28242l-0.18862,-1.89892c-0.11782,-1.18618 -0.42509,-2.345 -0.81866,-3.08743c-0.94568,-1.78392 -0.85834,-3.19576 0.26734,-4.32144c0.49356,-0.49356 1.46395,-1.17165 2.15641,-1.50687c1.18577,-0.57402 1.38537,-0.59258 3.43033,-0.31896c1.48887,0.19921 2.91082,0.6207 4.52431,1.34109c1.29416,0.57782 2.8888,1.23126 3.54365,1.4521c1.99732,0.67358 3.06731,1.18363 3.44977,1.64446c0.60849,0.73319 1.49217,0.92644 2.87766,0.6293c1.06608,-0.22863 1.26543,-0.36138 1.15823,-0.7713c-0.07122,-0.27233 -0.61386,-0.68896 -1.20588,-0.92584c-2.08864,-0.83571 -3.57903,-2.55568 -4.27698,-4.93585c-0.22852,-0.7793 -0.78373,-2.14781 -1.23379,-3.04112c-0.84842,-1.684 -1.00913,-2.86715 -0.64193,-4.7258c0.46978,-2.37789 1.61536,-2.90016 6.18164,-2.81822c3.80625,0.0683 4.96083,0.35701 8.39864,2.10005c0.86048,0.43628 2.39795,1.19224 3.41659,1.67992c1.34645,0.64461 2.39385,1.43466 3.83646,2.89383c1.09141,1.10392 2.49039,2.39467 3.10886,2.86832c0.61846,0.47365 1.12448,1.01565 1.12448,1.20443c0,0.47301 1.3696,1.46117 3.57187,2.57705c1.01865,0.51615 2.56646,1.4084 3.43958,1.98278c4.0003,2.63156 5.95313,3.36262 5.95313,2.22861c0,-0.27322 -0.18788,-0.6527 -0.41752,-0.84327c-0.4425,-0.36725 -1.67054,-2.57757 -2.04848,-3.68704c-0.30194,-0.88634 -0.97445,-5.25191 -1.15504,-7.49791c-0.25335,-3.15081 0.80944,-6.64192 2.47189,-8.11981c1.73049,-1.53838 3.0656,-2.41762 3.86762,-2.54703c1.07401,-0.1733 3.30825,0.6821 4.69737,1.79843c0.77827,0.62543 1.18568,0.78301 1.69877,0.65704c0.37124,-0.0911 0.96604,-0.23788 1.32179,-0.32606c0.46637,-0.11561 1.07535,0.1012 2.18282,0.77712c3.71647,2.26829 6.12035,5.92106 8.38723,12.74468c0.38675,1.16416 0.91622,2.41432 1.17661,2.77812c0.26038,0.3638 1.16421,2.03002 2.0085,3.70271c1.47566,2.92353 1.53006,3.10377 1.40542,4.65663c-0.13076,1.62889 0.12725,2.59796 0.97283,3.65393c0.39244,0.49007 2.70803,1.04787 2.92081,0.70358c0.0567,-0.0917 -0.0226,-0.75581 -0.17618,-1.47583c-0.20007,-0.93805 -0.19458,-1.76848 0.0194,-2.92963c0.21578,-1.17107 0.21924,-1.84814 0.0125,-2.44128c-0.63265,-1.81483 1.63238,-6.15058 2.98829,-5.72023c0.28374,0.0901 0.7095,-0.006 0.95574,-0.21475c0.79055,-0.67142 2.1495,-1.06506 3.19346,-0.92504c1.30329,0.17481 3.47947,1.59046 5.26254,3.42337c1.45025,1.4908 2.09333,2.85189 3.2881,6.95925c0.9759,3.35496 0.89887,3.26598 1.77749,2.05307c0.46217,-0.638 1.18584,-1.21872 1.84982,-1.48439c1.97502,-0.79024 4.8551,-0.4366 5.80869,0.71325c0.25978,0.31324 0.79007,0.43786 1.86315,0.43786c1.1437,0 2.12589,0.2548 4.13479,1.07265c3.77368,1.53631 4.37375,2.0008 6.39919,4.95348c0.32701,0.47672 0.67336,1.19109 0.76965,1.5875c0.0963,0.39641 0.33592,0.9556 0.53249,1.24264c0.19657,0.28704 0.3574,0.85259 0.3574,1.25677c0,0.65699 -0.0938,0.73488 -0.88503,0.73488c-0.54902,0 -1.06686,0.2009 -1.36393,0.52916c-0.47618,0.52618 -0.46213,0.52917 2.48104,0.52917c1.98078,0 3.26224,0.12632 3.87385,0.38187c0.84327,0.35234 0.90128,0.4495 0.75026,1.25677c-0.09,0.4812 -0.2393,0.96033 -0.33175,1.06474c-0.0924,0.10441 -0.92074,-0.0444 -1.84066,-0.33073c-1.70375,-0.53026 -3.34771,-0.62725 -4.53586,-0.26759l-0.66146,0.20022l0.66146,0.15998c0.3638,0.088 0.89958,0.19869 1.19062,0.246c0.93631,0.15223 0.62497,1.56973 -0.63211,2.87798c-0.6328,0.65856 -1.08768,1.38736 -1.08768,1.74269c0,0.33591 -0.25895,0.81794 -0.57544,1.07118c-0.79488,0.63601 -1.46625,1.33495 -2.92733,3.04756c-1.43435,1.68128 -3.94266,3.1027 -5.46918,3.0993c-0.52246,-0.001 -2.35737,-0.17767 -4.07758,-0.39225c-4.36133,-0.54402 -5.20081,-1.2195 -4.87303,-3.92109l0.13448,-1.1085l-0.39161,0.92604c-0.21539,0.50932 -0.77715,1.28323 -1.24837,1.71979c-0.69847,0.64709 -0.94325,1.18484 -1.32487,2.91042c-0.94873,4.28996 -1.49798,5.34101 -4.42773,8.47292c-2.14106,2.2888 -3.91061,3.15404 -6.45047,3.15404c-1.34173,0 -2.06827,-0.12887 -2.52297,-0.44754c-0.35124,-0.24615 -1.11486,-0.77875 -1.69694,-1.18357c-1.57079,-1.09242 -2.57126,-3.26354 -2.72462,-5.91271c-0.0919,-1.58804 -0.016,-2.30479 0.31876,-3.01032c0.39398,-0.83023 1.47983,-4.65772 1.47983,-5.21619c0,-0.53546 -0.72079,-0.12004 -2.13925,1.23295c-0.8391,0.80036 -1.63322,1.45521 -1.76471,1.45521c-0.13149,0 -1.16279,1.87523 -2.29178,4.16719c-1.129,2.29195 -2.21538,4.46484 -2.4142,4.82864c-0.19882,0.3638 -0.73727,1.37584 -1.19656,2.24896c-0.4593,0.87313 -1.29823,2.19381 -1.86429,2.93486c-0.56607,0.74104 -1.02921,1.49028 -1.02921,1.66498c0,0.42697 -2.20911,2.77877 -3.79408,4.03916c-1.74481,1.3875 -3.0065,1.41439 -4.32863,0.0922c-0.50933,-0.50932 -1.06297,-0.92408 -1.23032,-0.92167c-0.16734,0.002 -0.81217,0.53035 -1.43294,1.17322c-1.169,1.2106 -3.31166,2.39206 -4.69216,2.58726c-0.43656,0.0617 -1.32953,0.0381 -1.98437,-0.0525l-0.00007,0.00001zm47.87689,-41.69534c-0.46983,-0.56611 -0.61796,-0.27183 -0.229,0.45495c0.20903,0.39057 0.37184,0.49279 0.44333,0.27834c0.0621,-0.1864 -0.0343,-0.51639 -0.21433,-0.73329z" id="path3972"/>
  </g>
 </g>
</svg>