<svg width="152" height="14" viewBox="0 0 152 14" fill="none" xmlns="http://www.w3.org/2000/svg">
<path d="M5.25586 7.2959C3.80859 6.87988 2.75391 6.37012 2.0918 5.7666C1.43555 5.15723 1.10742 4.40723 1.10742 3.5166C1.10742 2.50879 1.50879 1.67676 2.31152 1.02051C3.12012 0.358398 4.16895 0.0273438 5.45801 0.0273438C6.33691 0.0273438 7.11914 0.197266 7.80469 0.537109C8.49609 0.876953 9.0293 1.3457 9.4043 1.94336C9.78516 2.54102 9.97559 3.19434 9.97559 3.90332H8.2793C8.2793 3.12988 8.0332 2.52344 7.54102 2.08398C7.04883 1.63867 6.35449 1.41602 5.45801 1.41602C4.62598 1.41602 3.97559 1.60059 3.50684 1.96973C3.04395 2.33301 2.8125 2.83984 2.8125 3.49023C2.8125 4.01172 3.03223 4.4541 3.47168 4.81738C3.91699 5.1748 4.66992 5.50293 5.73047 5.80176C6.79688 6.10059 7.62891 6.43164 8.22656 6.79492C8.83008 7.15234 9.27539 7.57129 9.5625 8.05176C9.85547 8.53223 10.002 9.09766 10.002 9.74805C10.002 10.7852 9.59766 11.6172 8.78906 12.2441C7.98047 12.8652 6.89941 13.1758 5.5459 13.1758C4.66699 13.1758 3.84668 13.0088 3.08496 12.6748C2.32324 12.335 1.73438 11.8721 1.31836 11.2861C0.908203 10.7002 0.703125 10.0352 0.703125 9.29102H2.39941C2.39941 10.0645 2.68359 10.6768 3.25195 11.1279C3.82617 11.5732 4.59082 11.7959 5.5459 11.7959C6.43652 11.7959 7.11914 11.6143 7.59375 11.251C8.06836 10.8877 8.30566 10.3926 8.30566 9.76562C8.30566 9.13867 8.08594 8.65527 7.64648 8.31543C7.20703 7.96973 6.41016 7.62988 5.25586 7.2959ZM22.0078 13H20.3115V7.08496H13.8604V13H12.1729V0.203125H13.8604V5.70508H20.3115V0.203125H22.0078V13ZM34.8486 7.01465C34.8486 8.26855 34.6377 9.36426 34.2158 10.3018C33.7939 11.2334 33.1963 11.9453 32.4229 12.4375C31.6494 12.9297 30.7471 13.1758 29.7158 13.1758C28.708 13.1758 27.8145 12.9297 27.0352 12.4375C26.2559 11.9395 25.6494 11.2334 25.2158 10.3193C24.7881 9.39941 24.5684 8.33594 24.5566 7.12891V6.20605C24.5566 4.97559 24.7705 3.88867 25.1982 2.94531C25.626 2.00195 26.2295 1.28125 27.0088 0.783203C27.7939 0.279297 28.6904 0.0273438 29.6982 0.0273438C30.7236 0.0273438 31.626 0.276367 32.4053 0.774414C33.1904 1.2666 33.7939 1.98438 34.2158 2.92773C34.6377 3.86523 34.8486 4.95801 34.8486 6.20605V7.01465ZM33.1699 6.18848C33.1699 4.6709 32.8652 3.50781 32.2559 2.69922C31.6465 1.88477 30.7939 1.47754 29.6982 1.47754C28.6318 1.47754 27.791 1.88477 27.1758 2.69922C26.5664 3.50781 26.2529 4.63281 26.2354 6.07422V7.01465C26.2354 8.48535 26.543 9.64258 27.1582 10.4863C27.7793 11.3242 28.6318 11.7432 29.7158 11.7432C30.8057 11.7432 31.6494 11.3477 32.2471 10.5566C32.8447 9.75977 33.1523 8.62012 33.1699 7.1377V6.18848ZM39.0674 7.99023V13H37.3799V0.203125H42.0996C43.5 0.203125 44.5957 0.560547 45.3867 1.27539C46.1836 1.99023 46.582 2.93652 46.582 4.11426C46.582 5.35645 46.1924 6.31445 45.4131 6.98828C44.6396 7.65625 43.5293 7.99023 42.082 7.99023H39.0674ZM39.0674 6.61035H42.0996C43.002 6.61035 43.6934 6.39941 44.1738 5.97754C44.6543 5.5498 44.8945 4.93457 44.8945 4.13184C44.8945 3.37012 44.6543 2.76074 44.1738 2.30371C43.6934 1.84668 43.0342 1.60938 42.1963 1.5918H39.0674V6.61035ZM50.5459 13H48.8584V0.203125H50.5459V13ZM60.6973 7.34863H55.3271V13H53.6396V0.203125H61.5674V1.5918H55.3271V5.96875H60.6973V7.34863ZM67.4912 6.62793L70.8311 0.203125H72.7471L68.335 8.22754V13H66.6475V8.22754L62.2354 0.203125H64.1689L67.4912 6.62793ZM86.0977 7.08496H80.5518V11.6201H86.9941V13H78.8643V0.203125H86.9062V1.5918H80.5518V5.70508H86.0977V7.08496ZM93.2695 5.10742L96.3369 0.203125H98.3232L94.2803 6.54883L98.4199 13H96.416L93.2695 8.00781L90.1055 13H88.1104L92.2588 6.54883L88.207 0.203125H90.1846L93.2695 5.10742ZM102.067 7.99023V13H100.38V0.203125H105.1C106.5 0.203125 107.596 0.560547 108.387 1.27539C109.184 1.99023 109.582 2.93652 109.582 4.11426C109.582 5.35645 109.192 6.31445 108.413 6.98828C107.64 7.65625 106.529 7.99023 105.082 7.99023H102.067ZM102.067 6.61035H105.1C106.002 6.61035 106.693 6.39941 107.174 5.97754C107.654 5.5498 107.895 4.93457 107.895 4.13184C107.895 3.37012 107.654 2.76074 107.174 2.30371C106.693 1.84668 106.034 1.60938 105.196 1.5918H102.067V6.61035ZM118.969 7.08496H113.423V11.6201H119.865V13H111.735V0.203125H119.777V1.5918H113.423V5.70508H118.969V7.08496ZM126.659 7.82324H123.653V13H121.957V0.203125H126.193C127.635 0.203125 128.742 0.53125 129.516 1.1875C130.295 1.84375 130.685 2.79883 130.685 4.05273C130.685 4.84961 130.468 5.54395 130.034 6.13574C129.606 6.72754 129.009 7.16992 128.241 7.46289L131.247 12.8945V13H129.437L126.659 7.82324ZM123.653 6.44336H126.246C127.084 6.44336 127.749 6.22656 128.241 5.79297C128.739 5.35938 128.988 4.7793 128.988 4.05273C128.988 3.26172 128.751 2.65527 128.276 2.2334C127.808 1.81152 127.128 1.59766 126.237 1.5918H123.653V6.44336ZM141.196 1.5918H137.083V13H135.404V1.5918H131.3V0.203125H141.196V1.5918ZM146.725 7.2959C145.277 6.87988 144.223 6.37012 143.561 5.7666C142.904 5.15723 142.576 4.40723 142.576 3.5166C142.576 2.50879 142.978 1.67676 143.78 1.02051C144.589 0.358398 145.638 0.0273438 146.927 0.0273438C147.806 0.0273438 148.588 0.197266 149.273 0.537109C149.965 0.876953 150.498 1.3457 150.873 1.94336C151.254 2.54102 151.444 3.19434 151.444 3.90332H149.748C149.748 3.12988 149.502 2.52344 149.01 2.08398C148.518 1.63867 147.823 1.41602 146.927 1.41602C146.095 1.41602 145.444 1.60059 144.976 1.96973C144.513 2.33301 144.281 2.83984 144.281 3.49023C144.281 4.01172 144.501 4.4541 144.94 4.81738C145.386 5.1748 146.139 5.50293 147.199 5.80176C148.266 6.10059 149.098 6.43164 149.695 6.79492C150.299 7.15234 150.744 7.57129 151.031 8.05176C151.324 8.53223 151.471 9.09766 151.471 9.74805C151.471 10.7852 151.066 11.6172 150.258 12.2441C149.449 12.8652 148.368 13.1758 147.015 13.1758C146.136 13.1758 145.315 13.0088 144.554 12.6748C143.792 12.335 143.203 11.8721 142.787 11.2861C142.377 10.7002 142.172 10.0352 142.172 9.29102H143.868C143.868 10.0645 144.152 10.6768 144.721 11.1279C145.295 11.5732 146.06 11.7959 147.015 11.7959C147.905 11.7959 148.588 11.6143 149.062 11.251C149.537 10.8877 149.774 10.3926 149.774 9.76562C149.774 9.13867 149.555 8.65527 149.115 8.31543C148.676 7.96973 147.879 7.62988 146.725 7.2959Z" fill="white"/>
</svg>
